<svg width="444" height="629" viewBox="0 0 444 629" fill="none" xmlns="http://www.w3.org/2000/svg">
<g opacity="0.6">
<path fill-rule="evenodd" clip-rule="evenodd" d="M190.184 70.119C184.726 76.0377 170.619 77.1886 160.722 77.6818C153.948 78.0107 146.484 77.8463 143.36 74.6567C153.586 72.2892 178.379 72.6838 190.184 70.119Z" fill="#C79BCB"/>
<path fill-rule="evenodd" clip-rule="evenodd" d="M184.89 79.9507C185.613 79.9507 185.482 80.8714 185.646 81.4633C181.141 90.3414 166.575 89.0919 153.915 89.7824C155.822 83.4033 164.963 86.2312 171.31 85.2447C177.228 84.324 181.766 82.1867 184.923 79.9507H184.89Z" fill="#C79BCB"/>
<path fill-rule="evenodd" clip-rule="evenodd" d="M178.84 94.2874C178.774 102.574 161.281 99.8773 151.646 101.094C156.908 94.8463 170.192 92.7419 178.84 94.2874Z" fill="#C79BCB"/>
<path fill-rule="evenodd" clip-rule="evenodd" d="M264.958 323.213H267.227V325.481C265.583 325.613 264.826 324.857 264.958 323.213Z" fill="#C79BCB"/>
<path fill-rule="evenodd" clip-rule="evenodd" d="M199.983 329.263C200.64 329.132 200.706 329.559 200.739 330.019C213.135 338.634 229.971 344.751 246.083 350.406C250.851 352.083 258.447 351.393 260.42 357.213C256.901 360.961 250.161 356.621 244.571 354.944C239.178 353.333 233.095 352.017 227.209 349.65C217.377 345.737 195.478 339.259 200.015 329.263H199.983Z" fill="#C79BCB"/>
<path fill-rule="evenodd" clip-rule="evenodd" d="M204.521 488.676V493.97C197.287 499.001 184.956 498.869 175.059 497.751C182.753 490.945 195.61 493.575 204.521 488.676Z" fill="#C79BCB"/>
<path fill-rule="evenodd" clip-rule="evenodd" d="M74.5696 499.231C75.1615 499.625 75.7863 500.02 76.8385 499.987C77.7592 517.02 82.4284 530.107 83.6451 545.331C79.1074 544.707 78.3839 539.643 77.5948 536.256C74.8984 524.747 74.0106 510.148 74.5696 499.231Z" fill="#C79BCB"/>
<path fill-rule="evenodd" clip-rule="evenodd" d="M203.765 501.5C200.674 510.246 182.95 512.844 177.328 506.794C184.956 505.544 195.347 501.96 203.765 501.5Z" fill="#C79BCB"/>
<path fill-rule="evenodd" clip-rule="evenodd" d="M85.1593 508.306H87.4281C87.0335 519.716 92.6564 526.786 92.7221 535.5C84.5674 532.639 81.8382 517.809 85.1593 508.306Z" fill="#C79BCB"/>
<path fill-rule="evenodd" clip-rule="evenodd" d="M201.496 516.625C200.476 521.656 190.546 521.788 185.614 520.407C187.422 516.264 195.38 515.573 201.496 516.625Z" fill="#C79BCB"/>
<path fill-rule="evenodd" clip-rule="evenodd" d="M206.789 525.668C207.513 525.668 207.381 526.589 207.545 527.181C192.255 554.341 146.713 549.54 112.352 548.357C105.052 542.964 87.0982 544.509 84.4019 537.012C94.2994 535.27 104.328 539.709 115.377 542.306C144.938 549.244 190.019 542.339 206.789 525.668Z" fill="#C79BCB"/>
<path fill-rule="evenodd" clip-rule="evenodd" d="M187.915 25.5636C189.822 30.2329 193.143 35.7242 192.453 40.6565C172 50.0937 139.644 56.3084 110.872 55.026C98.311 54.467 84.0731 53.6778 75.3593 51.2445C64.1136 48.1207 49.6455 37.2696 59.4772 21.0259C69.5063 21.8808 77.8912 16.5539 87.427 15.7319C91.1098 15.403 95.3188 16.817 99.5277 16.4881C109.031 15.7319 118.04 13.5287 127.477 14.2193C133.889 14.6796 140.4 16.5868 147.108 17.2444C160.721 18.5597 173.907 22.0781 187.915 25.5636ZM94.2336 22.5385C108.34 29.082 119.52 38.552 133.528 45.1942C133.528 46.3122 130.437 48.5811 133.528 48.2194C133.824 47.2329 141.518 47.1672 143.36 45.1942C139.512 41.6101 132.476 39.111 125.241 34.6062C120.868 31.877 108.57 25.9253 107.88 23.2619C107.88 23.1961 110.149 22.111 109.392 20.993C102.849 21.3547 97.489 20.1709 94.2994 22.5056L94.2336 22.5385ZM163.746 41.4128C147.437 34.5075 134.679 17.8363 112.385 21.7822C131.752 25.3992 141.189 48.2194 163.746 41.4128ZM93.4774 28.5559C87.6901 24.7087 84.5992 18.8885 76.839 24.7744C94.0035 31.2851 105.677 47.2987 125.965 48.1865C118.501 40.3934 103.309 35.0337 93.4774 28.5559ZM175.058 42.1691C176.275 39.6043 180.812 40.3934 181.864 37.6313C169.205 33.9157 160.721 22.0123 144.839 24.051C155.526 29.4766 164.568 36.5462 175.058 42.1691ZM67.7635 31.581C73.8796 35.2967 78.0228 40.9524 87.3942 41.4128V44.4379C92.0305 44.1091 97.9164 46.5095 101.007 45.1942C91.9977 37.5656 78.8448 34.113 70.7887 25.5636C66.4811 25.9253 69.2761 28.7203 67.7635 31.6139V31.581ZM73.0576 41.4128C69.3748 39.5714 65.955 37.4341 62.5024 35.3625C63.2258 39.7029 70.8216 41.1168 73.0576 41.4128Z" fill="#C79BCB"/>
<path fill-rule="evenodd" clip-rule="evenodd" d="M231.714 448.625C219.318 459.476 196.695 466.513 177.327 471.281C152.731 477.364 113.174 479.008 85.1585 475.819C62.4369 473.221 41.9842 469.44 33.7966 451.65C34.2898 447.836 37.4794 447.376 36.8217 444.087C35.5722 437.741 29.5877 440.964 24.7211 436.524C18.6379 430.967 22.8797 423.931 26.2337 416.894C25.1486 403.346 19.8217 394.107 14.8894 384.406C15.8758 382.466 17.3884 382.959 19.4271 383.65C17.5857 376.679 8.97058 376.482 8.83905 367.768C5.91254 366.157 2.39416 365.137 2.03245 360.961C1.60498 358.265 4.26844 358.66 6.57019 358.692C6.24136 350.571 6.99765 341.035 5.05761 330.743C2.59145 317.623 -4.97144 304.009 5.05761 293.717C0.322582 288.259 -1.35441 280.762 5.8139 277.112C2.09822 273.199 5.41931 265.537 5.05761 261.23C8.80617 261.624 17.1253 263.663 23.9319 263.499C14.1988 259.06 5.22202 256.363 2.78874 246.893C1.34193 241.205 4.92608 235.549 5.05761 228.775C5.22202 219.174 -0.203532 206.514 7.32647 199.313C-5.5962 186.226 14.1002 174.553 8.83905 156.237C12.6863 163.734 17.6843 170.048 23.2085 175.868C38.2357 180.011 52.0462 192.046 67.7967 198.524C74.8992 201.45 82.1333 202.174 87.4273 207.599C90.88 208.29 91.702 206.35 94.2339 206.087C95.2862 207.073 94.9902 209.375 94.9902 211.381C111.661 215.096 122.644 225.06 136.553 233.28C136.257 235.089 137.934 234.924 137.31 237.061C149.246 241.764 155.822 252.911 165.259 260.474C171.112 265.143 179.3 267.116 183.377 274.087C203.666 284.773 220.633 298.781 237.764 312.625C238.356 316.307 241.612 317.36 243.058 320.188C244.111 321.667 246.971 321.305 248.352 322.456C248.681 324.035 247.826 324.462 247.596 325.482C266.602 343.534 276.73 362.573 284.621 391.213C285.542 394.534 285.312 398.381 286.134 401.801C287.943 409.528 291.264 417.847 294.453 425.969C300.964 442.608 305.37 461.877 314.84 476.575C315.958 478.285 318.063 478.614 319.378 480.356C327.5 491.142 329.736 513.173 324.672 526.457C318.293 543.194 305.962 556.117 285.378 560.457C276.269 562.364 266.405 562.036 257.428 565.751C239.31 573.215 219.449 587.815 237.041 603.533C255.85 614.417 280.281 618.494 307.31 621.651C323.291 623.525 340.028 621.651 356.403 622.407C366.432 622.867 377.053 624.808 385.109 620.895C388.332 623.985 394.941 618.691 395.697 621.651C400.334 618.231 407.239 617.08 413.815 615.601C385.109 612.016 352.359 612.51 320.89 611.063C306.093 610.405 292.349 606.525 279.327 605.769C268.739 605.177 244.012 606.295 251.378 586.138C251.706 585.217 253.745 582.291 254.403 581.6C265.813 569.664 287.482 565.883 305.765 558.188C318.753 552.73 324.442 542.438 331.446 533.264C334.405 521.229 334.208 509.852 329.177 500.02C329.571 497.389 333.254 498.047 335.227 496.995C335.523 487.656 332.399 481.704 329.933 475.095C317.504 461.416 311.486 443.035 304.252 425.246C300.865 416.927 295.505 409.989 292.908 401.834C289.521 391.114 288.238 377.139 283.832 365.565C281.629 359.745 276.795 353.07 273.244 347.447C263.676 332.189 250.588 318.149 236.975 306.64C224.053 284.806 202.844 271.259 182.588 256.791C180.55 256.298 177.853 256.462 176.538 255.278C174.17 255.64 174.137 253.667 174.269 251.497C169.337 252.154 167.101 250.116 163.681 249.228C162.662 248.274 162.662 245.644 163.681 244.69C155.428 240.185 145.662 235.121 136.487 229.564C130.306 225.849 125.538 219.798 119.093 215.984C110.379 210.789 99.8897 205.791 90.3867 202.371C80.0617 198.655 68.3886 196.748 58.6555 191.783C54.8083 189.81 51.5201 186.883 47.3111 184.976C34.7173 179.255 24.7211 172.481 14.8236 163.833C10.516 153.311 5.09049 141.703 7.26071 126.808C8.64176 117.469 15.1524 109.413 17.8488 102.639C24.9513 100.93 28.7656 95.9314 35.2434 93.5639C33.5335 87.5794 36.1641 84.2912 37.5123 82.2196C37.5123 61.3723 27.1215 31.5482 39.0248 15.7319C44.4504 6.39342 57.2415 7.31412 70.7561 4.38761C78.7136 2.67774 89.8277 -1.26812 97.9496 1.36245C109.064 -2.12305 122.217 2.08586 136.487 2.87503C167.166 4.5849 205.178 5.34119 212.018 30.8248C213.826 31.1208 211.59 27.3722 214.287 28.556C219.022 49.4361 214.615 72.3221 215.043 97.3125C233.884 111.583 247.399 129.274 248.287 156.237C248.418 159.887 247.037 162.551 247.53 166.069C248.747 174.454 253.712 182.379 254.337 190.994C255.225 203.522 253.712 216.642 255.85 228.019C257.757 238.245 257 250.313 258.118 261.263C258.645 266.491 260.782 271.456 261.144 276.389C262.13 289.377 260.059 302.826 258.875 315.683C257.033 315.189 256.573 311.276 257.362 310.389C254.995 310.224 251.805 310.882 250.556 309.632C259.631 320.22 271.337 334.689 281.531 346.658C281.333 349.387 282.944 350.308 283.043 352.708C291.329 362.342 294.519 381.578 298.892 396.54C305.041 417.354 315.465 440.931 326.086 460.002C331.61 469.9 339.173 479.14 340.455 490.221C341.54 499.855 339.041 507.32 338.943 514.389C338.68 531.751 329.933 544.477 319.312 556.709C305.403 563.252 291.79 568.743 276.236 575.583C269.463 578.575 256.507 581.436 255.85 588.44C255.258 594.556 263.741 597.91 269.463 599.028C281.399 601.297 297.544 597.943 309.513 604.322C339.206 607.479 371.595 605.933 396.388 609.616C398.065 609.846 400.038 609.55 400.926 611.885C404.115 609.583 411.316 610.602 414.506 612.641C415.394 612.51 415.131 611.26 415.262 610.372C423.713 613.167 435.09 612.049 443.212 613.397C438.543 615.732 432.788 613.134 428.875 613.397C422.792 613.792 419.142 617.869 413.75 620.204C405.134 623.953 394.513 624.807 384.287 626.254C353.444 630.628 316.123 628.392 283.799 625.498C262.196 623.558 243.091 615.403 229.412 605.867C224.579 598.633 222.113 588.341 228.656 580.186C241.579 564.107 259.828 559.767 285.312 553.749C302.542 549.672 312.834 543.293 319.312 528.068C325.034 514.652 316.123 500.677 311.749 488.774C309.743 483.283 308.823 477.857 306.455 472.925C303.331 466.316 297.544 460.561 298.136 452.505C279.623 423.931 279.689 376.778 259.598 349.749C243.157 343.008 225.072 337.911 209.749 330.118C209.157 327.915 206.165 328.178 206.724 324.824C203.403 326.041 200.41 327.586 196.892 328.605C196.892 330.841 199.128 334.656 196.136 335.412C193.933 337.253 193.735 332.222 192.354 330.874C188.671 333.242 183.542 334.13 180.254 336.924C200.213 348.137 225.105 361.816 249.766 363.362C253.285 365.598 257.132 372.24 253.548 376.975C257.066 380.954 261.111 379.967 265.648 380C266.766 381.217 266.766 385.59 265.648 386.807C263.511 388.221 259.73 386.05 257.329 385.294C257.527 389.996 256.803 393.843 252.035 393.613C253.12 397.099 254.764 400.42 253.548 404.201C251.443 405.089 249.635 405.089 247.498 404.201C249.602 407.753 249.997 409.101 249.766 415.546C248.681 417.749 246.084 418.406 243.716 419.327C245.13 424.062 245.656 436.82 236.153 435.209C239.639 443.627 234.904 455.596 229.347 461.646C224.743 486.275 233.72 503.703 232.372 523.596C226.519 528.134 224.447 534.743 218.759 540.202C197.056 561.148 152.797 567.067 115.246 564.37C105.217 563.647 91.5047 560.03 82.0018 558.32C78.582 557.695 63.7193 546.647 60.8586 543.227C55.0056 536.256 53.7232 526.983 51.0268 518.302C51.7502 516.132 53.5259 517.809 54.052 516.79C52.5394 504.59 52.7696 495.877 51.0268 486.571C38.4987 481.441 32.4484 465.888 29.8836 453.327C38.696 456.911 40.9978 473.418 51.0268 478.252C53.8547 479.534 52.2106 477.792 54.8083 477.496C55.433 478.91 55.7947 480.554 57.0771 481.277C87.1314 490.057 129.188 486.736 165.095 482.79C185.745 480.521 202.416 474.438 218.726 465.428C218.364 461.844 222.441 461.383 223.263 458.621C224.809 453.426 230.136 455.629 231.583 448.789L231.714 448.625ZM205.277 28.556C201.561 17.4747 170.652 10.9312 153.915 8.92534C138.164 7.01818 114.983 5.53848 101.041 5.90019C70.6903 6.68936 30.607 10.405 40.6032 41.4129C49.6129 53.8752 67.2706 58.0512 87.4602 60.2872C105.447 62.293 127.544 67.2582 144.116 64.825C149.377 64.0358 151.613 61.6025 156.217 60.2872C175.683 54.763 195.346 55.3549 203.041 45.1614C202.778 41.1169 207.677 35.6256 205.31 28.5231L205.277 28.556ZM206.033 98.0688C208.368 97.3783 208.532 95.4053 209.058 93.531C212.544 81.1674 210.209 59.498 211.327 47.4303C211.163 46.8384 210.702 46.5425 209.815 46.674C206.296 51.2118 200.772 53.7766 196.201 57.2621C175.749 63.411 153.027 70.9739 127.445 71.5987C106.236 72.1248 84.0734 66.7979 63.9824 63.2795C63.522 69.8559 67.7309 85.7051 63.9824 90.473C59.9708 83.502 59.7735 70.941 60.2009 61.7669C58.787 60.9449 56.6497 60.8133 54.9069 60.2543C55.8934 74.9855 64.5743 91.9198 60.9572 103.297C54.1835 90.8676 55.2357 71.6973 49.6129 60.9777C49.4814 62.0957 49.8759 63.7727 48.8566 64.0029C47.3769 59.3994 45.7328 51.0145 39.7811 53.4149C41.8198 64.9894 43.5626 84.0939 42.8063 95.7341C56.8141 115.332 80.7194 124.374 107.781 127.465C113.733 128.156 123.696 124.868 127.412 128.222C134.515 125.591 147.503 128.649 156.874 128.222C172.888 122.796 197.286 122.697 204.455 106.322C207.02 106.289 207.677 107.67 208.993 105.566C208.861 103.757 208.302 100.864 205.967 98.003L206.033 98.0688ZM33.7637 101.094C33.9281 100.502 34.3885 100.206 35.2763 100.338V104.119C32.021 104.382 27.3517 103.264 26.2008 105.632C31.1989 107.933 38.8275 107.605 45.0752 108.657C46.1603 105.237 35.6051 96.6877 33.7308 101.094H33.7637ZM214.319 105.632C213.333 107.67 212.281 109.643 211.294 111.682C209.42 111.583 207.644 111.583 206.757 112.438C181.174 139.369 146.747 159.295 98.7059 161.531C112.779 163.406 134.087 160.38 147.043 160.019C151.482 157.651 157.992 155.053 162.925 155.481C185.778 143.742 211.689 132.102 216.555 105.632H214.287H214.319ZM29.226 124.506C40.6032 128.715 58.3595 127.86 70.0327 126.019C64.0153 123.815 58.5897 117.535 51.1583 115.431C41.9842 112.833 31.2975 115.102 23.2085 110.137C21.7946 116.746 23.7018 122.434 29.2589 124.506H29.226ZM195.445 142.624C175.847 158.243 152.106 167.713 119.126 166.792C126.097 168.404 133.627 169.39 140.269 171.33C140.499 169.291 141.354 167.976 143.294 166.036C152.501 165.74 163.089 163.044 172 162.255C173.184 160.38 179.596 158.638 184.857 158.473C187.915 156.237 190.48 153.541 196.201 153.936C200.312 149.694 205.902 148.28 209.815 144.104C216.687 136.837 219.054 126.775 225.664 119.179C227.67 129.307 221.685 138.415 217.345 144.104C202.581 163.537 172.165 166.201 144.807 172.054C157.532 175.276 163.484 175.309 174.269 177.348C196.925 162.485 229.708 157.75 231.681 122.204C228.13 118.456 225.401 113.885 220.337 111.616C216.884 127.663 206.362 133.877 195.412 142.591L195.445 142.624ZM14.1331 119.968C15.8758 119.738 17.0267 120.1 17.9145 120.725C17.4542 118.686 18.8681 114.74 17.1582 113.918C15.7114 115.463 15.3168 118.127 14.1331 119.968ZM69.2764 163.8C79.5356 162.847 87.0327 169.686 96.4699 172.119C99.8897 172.974 103.572 171.988 107.058 172.876C117.712 175.572 127.938 182.74 141.058 182.707C140.861 184.845 139.907 187.87 136.52 188.758C89.6962 175.671 41.5896 163.833 12.6205 132.858C13.9029 140.059 21.696 145.057 27.7134 150.22C33.3034 154.988 39.1893 160.874 45.8643 164.556C63.7851 174.553 85.8819 179.912 104.789 189.481C109.952 192.079 114.16 195.696 119.159 196.288C135.764 198.228 147.7 184.68 162.234 181.195C150.035 181.984 139.315 177.38 131.259 175.144C114.884 170.64 98.8374 168.93 83.6459 162.288C69.5395 156.139 54.4794 152.291 44.3517 146.438C34.4542 140.717 27.0557 129.077 16.4019 125.295C28.0093 147.293 51.9475 149.464 69.2764 163.833V163.8ZM36.0326 132.069C39.9127 133.483 42.1486 136.541 45.8643 138.119C45.6999 135.949 46.0616 134.272 47.3769 133.581C61.2532 140.618 83.2184 137.001 97.2262 132.825C79.5356 129.34 54.9727 136.278 36.0326 132.069ZM209.058 166.069C179.464 179.584 150.956 198.03 114.621 202.338C104.592 198.293 95.3848 193.493 84.4022 187.969C75.8199 183.661 65.6265 182.017 57.2087 178.137C53.3943 176.394 49.7773 172.908 45.8643 170.574C41.4252 167.943 36.2627 166.266 33.0074 163.767C27.6476 159.624 23.636 152.916 18.6708 148.641C17.3226 147.491 15.3168 144.235 13.3768 145.616C16.1718 160.578 25.0828 165.083 35.2763 172.81C42.7076 178.433 51.5201 181.754 58.6884 184.91C79.2397 193.92 106.006 199.97 121.395 212.104C170.586 198.458 214.517 178.794 239.244 138.81C237.271 136.771 237.732 132.233 235.463 130.491C232.043 147.721 219.844 156.171 209.025 166.003L209.058 166.069ZM73.0578 150.943C77.2996 152.982 83.0211 153.574 86.671 156.237C93.2475 152.818 101.041 155.744 107.814 155.481C136.192 154.429 157.861 143.183 176.571 131.313C137.737 131.773 117.514 153.311 73.8141 150.943C73.9785 148.806 68.1584 151.141 72.3016 150.943H73.0578ZM61.7135 143.38C57.8663 142.986 53.9533 139.993 50.3692 141.868C55.6632 145.649 62.3054 148.082 69.2764 150.187C69.1777 148.28 67.8296 147.819 70.0327 147.162C95.4177 147.129 114.555 140.848 133.495 134.305C106.499 130.162 85.5202 145.781 61.7135 143.38ZM125.932 215.162C129.385 216.477 131.72 218.943 135.008 220.456C140.368 216.51 147.799 216.313 154.638 214.406C161.215 212.564 167.824 209.671 174.269 208.355C195.675 196.781 218.2 186.292 233.95 169.061C235.364 167.713 233.325 167.154 233.95 164.524C237.83 162.452 238.751 162.025 241.513 159.23C241.381 155.086 241.743 150.45 239.244 148.641C213.004 182.346 173.842 203.127 125.932 215.129V215.162ZM139.513 224.237C142.275 226.013 144.346 228.446 147.832 229.532C147.503 227.855 146.089 225.421 148.588 224.994C157.17 226.802 162.53 221.706 169.731 218.943C184.134 213.485 197.846 207.862 209.025 201.582C213.103 199.28 216.95 196.058 221.126 193.263C228.82 188.133 249.109 176.624 240.033 169.094C217.279 198.228 179.497 212.301 139.546 224.237H139.513ZM14.1331 177.413C15.7772 175.835 14.166 174.849 12.6205 174.388C12.3903 176.098 12.7849 177.216 14.1331 177.413ZM150.134 231.044C167.923 235.187 184.167 226.967 200.016 218.943C206.395 215.721 214.911 212.86 221.915 208.388C228.36 204.278 238.06 198.984 241.546 194.775C243.749 192.145 242.631 186.785 246.84 186.456C250.325 197.439 236.285 205.955 228.722 210.624C224.414 213.288 218.989 215.294 213.596 218.187C200.312 225.323 181.47 235.121 163.747 237.061C166.969 241.895 171.047 245.874 179.596 245.381C181.996 244.493 179.3 242.224 181.865 240.843C186.698 240.284 189.559 241.731 193.965 241.599C203.863 235.549 216.194 232.622 225.697 226.473C233.029 221.738 237.534 210.559 245.327 209.835C242.269 227.953 220.337 233.708 206.789 243.835C221.981 246.86 240.231 249.491 252.857 244.591C250.062 227.526 246.61 207.566 251.345 190.961C249.503 187.179 247.136 181.063 246.051 178.86C222.211 204.41 189.198 220.719 150.101 231.011L150.134 231.044ZM71.5781 204.607C52.2763 199.74 36.8875 186.949 20.9726 181.195V183.464C38.9591 194.94 57.1429 206.218 80.6536 212.17C79.141 208.158 73.4195 208.323 71.5781 204.607ZM8.11565 186.489C13.7385 195.104 19.0325 197.734 28.5026 204.607C40.6689 213.419 54.611 221.574 70.8219 213.682C62.2396 211.709 54.1506 209.21 47.4098 205.363C47.3111 206.284 47.1796 207.139 45.8972 206.876C40.5045 203.193 34.3556 200.266 27.7463 197.8C21.6631 192.309 18.4735 183.924 9.62822 181.195C10.0557 183.891 8.74041 184.845 8.11565 186.489ZM9.62822 204.607C17.7501 213.386 30.8043 226.276 44.3846 220.489C33.1061 213.88 20.4464 208.684 11.8971 199.346C11.6998 201.68 10.253 202.733 9.62822 204.64V204.607ZM53.4601 240.12C66.8102 245.775 82.0675 251.069 96.5357 253.733C97.292 256.002 100.218 256.1 101.83 257.514C128.629 263.038 150.002 270.075 175.88 275.632C172.033 273.626 161.84 265.044 156.25 259.75C116.199 253.963 75.2938 243.079 39.9127 231.044C27.7134 226.901 18.5393 219.667 8.18141 214.439C17.1911 229.4 34.6186 232.129 53.5259 240.12H53.4601ZM111.629 225.75C104.296 221.87 98.2784 216.543 90.4854 215.162C87.23 216.74 85.0598 217.858 80.6536 216.675C76.7406 219.338 71.1507 220.259 66.2841 221.969C68.553 225.092 73.288 226.309 76.8722 227.263C93.938 231.767 114.654 233.905 131.259 239.363C127.675 231.767 118.501 229.4 111.629 225.75ZM101.041 238.607C96.7987 236.864 93.5763 236.075 88.1836 234.826C72.8605 231.307 58.5239 223.448 46.6206 228.019C68.7503 231.439 88.7755 243.408 111.596 246.893C123.335 248.702 135.468 249.359 147.108 252.187C144.741 247.518 139.282 245.907 135.764 242.356C135.731 244.559 134.021 245.15 132.739 246.137C124.255 240.81 112.089 243.079 101.008 238.574L101.041 238.607ZM57.965 258.238C80.6865 264.584 99.3635 275.106 122.94 277.112C127.182 281.88 134.054 280.137 140.302 280.893C143.524 281.288 146.484 283.721 150.134 284.675C169.501 289.837 189.954 293.652 207.546 296.019C199.358 291.613 191.466 286.911 184.89 280.893C173.085 281.617 161.018 277.474 149.377 274.843C98.6072 263.367 51.2899 246.564 9.59534 227.263C14.5277 248.307 45.8314 246.86 57.9321 258.238H57.965ZM55.6961 273.33C67.2706 277.243 82.8238 279.085 94.2339 287.7C100.317 286.746 107.222 289.903 111.596 292.994C152.435 301.05 185.548 312.427 230.202 314.893C224.973 311.046 220.107 306.87 215.076 302.793C212.412 303.681 212.61 303.878 210.538 304.305C195.445 298.452 178.478 295.657 161.445 292.205C144.182 288.719 127.313 283.36 110.083 279.348C101.336 277.342 92.6556 275.961 84.4022 273.298C76.5762 270.766 69.6381 266.261 61.7464 263.466C44.286 257.35 22.3207 249.491 9.62822 240.054H7.35936C12.5876 260.276 40.8334 259.783 55.729 273.298L55.6961 273.33ZM183.377 250.675C200.608 258.665 230.432 262.775 254.403 261.263C252.528 257.876 252.857 255.048 253.646 251.431C230.037 257.975 205.77 241.106 183.377 250.675ZM255.159 274.843C254.534 271.686 256.178 268.53 255.159 267.28C237.107 265.603 213.136 262.348 196.991 260.474C213.004 274.12 235.035 276.98 255.159 274.843ZM8.11565 268.793C8.31294 271.621 9.8584 273.1 11.1408 274.843C20.578 276.389 34.3556 277.868 45.8972 274.843C38.3672 268.234 18.0789 270.47 8.11565 268.793ZM256.672 289.18C257.987 284.741 256.277 284.313 255.915 280.104C242.96 280.959 230.037 277.802 219.646 278.592C227.045 290.232 245.557 283.36 256.672 289.18ZM13.4097 279.348C13.2781 282.965 7.58953 281.091 6.60307 283.886C8.54311 287.24 9.82552 292.632 9.62822 295.986C30.8043 300.886 65.2977 298.354 88.2165 290.692C79.7658 284.543 72.1043 288.489 63.2919 290.692C48.0017 294.539 28.0422 295.921 12.6863 290.692C12.4232 289.377 10.3845 286.023 11.93 285.398C29.0287 291.087 51.4543 285.924 66.317 281.617C49.0868 275.632 30.4097 287.799 13.4425 279.348H13.4097ZM255.915 305.029C255.455 300.557 257.231 298.288 256.672 293.685C249.47 292.797 239.145 291.087 233.26 291.416C239.737 296.578 243.65 308.153 255.915 305.029ZM94.9902 292.928C70.1971 306.245 31.0016 310.586 6.60307 298.979C6.10984 301.51 4.43285 302.859 5.09049 306.541C9.98993 309.797 22.2878 310.882 33.0403 311.079C59.4118 311.572 94.3655 306.541 113.897 298.222C108.11 295.953 101.369 294.638 94.9902 292.928ZM124.453 302.004C117.58 306.18 108.143 307.758 97.2591 309.567C65.2319 314.893 32.7444 320.648 5.09049 313.348C7.95123 320.582 10.7791 327.783 11.1408 337.516C11.5683 335.675 11.7984 333.636 14.166 333.735C61.3518 344.257 118.008 326.435 158.453 310.323C154.145 308.58 148.325 308.35 144.116 306.541C120.408 322.062 76.9379 328.901 39.8469 328.441C31.2647 328.342 9.56246 328.638 10.3845 317.853C17.2569 316.899 18.8023 318.149 20.2163 320.878C60.5955 326.238 105.315 318.478 135.041 304.273C131.095 303.944 128.431 302.332 124.453 302.004ZM171.31 311.835C127.905 331.565 66.3828 348.104 12.6534 341.298C14.4619 346.362 21.8604 345.605 27.7463 345.836C64.7387 347.217 93.5105 343.994 123.696 336.004C140.433 331.598 157.762 327.454 172.066 321.667C176.768 319.76 182.621 317.228 184.167 314.104C180.714 313.973 175.288 312.888 171.31 311.835ZM193.209 316.373C192.058 316.636 192.551 318.247 191.697 318.642C186.698 320.977 182.621 324.364 177.327 326.205C132.936 341.66 84.1391 353.168 30.0151 352.642C24.1621 352.576 16.7636 350.669 11.1408 354.911C13.3439 363.822 26.0693 361.849 32.284 361.718C41.0307 361.52 50.4349 359.712 58.7212 358.692C76.2145 356.522 95.5163 355.634 111.596 351.13C144.478 341.923 178.314 332.485 203.764 318.642C199.621 318.083 196.826 315.551 193.209 316.373ZM212.083 324.692C225.072 329.099 237.008 338.536 250.621 339.785C242.664 331.663 222.113 330.052 215.109 320.911C214.615 322.654 212.61 322.95 212.083 324.692ZM240.033 327.718C238.192 322.522 230.859 322.128 226.42 323.18C231.418 324.232 235.43 326.271 240.033 327.718ZM233.983 367.768C214.484 361.159 194.064 353.201 180.352 341.331C177.327 341.594 174.828 341.331 174.302 339.062C174.269 338.602 174.203 338.174 173.546 338.306C169.6 340.903 163.352 341.199 159.209 343.6C169.435 351.59 184.397 355.865 199.259 361.718C213.53 367.34 230.103 374.936 243.848 376.087C248.32 376.449 249.733 377.271 251.41 373.818C247.399 368.393 239.869 369.741 234.016 367.768H233.983ZM241.546 382.137C228.261 378.06 214.319 373.325 200.739 368.524C182.687 362.178 165.753 354.22 150.89 345.868C139.71 349.913 130.404 350.044 122.94 355.7C134.219 365.466 147.503 371.352 164.503 376.12C190.579 383.42 218.364 392.134 246.116 395.751C245.097 389.996 237.83 390.424 234.016 389.7C217.641 386.609 204.849 382.368 190.94 377.6C172.23 371.188 152.961 367.11 141.847 352.675C143.426 350.242 143.886 347.907 146.385 348.137C149.607 348.17 148.029 353.037 150.166 354.188C177.985 372.437 218.002 379.079 252.167 388.944C253.219 382.466 245.097 383.223 241.579 382.137H241.546ZM120.671 361.718C118.435 360.435 119.487 355.832 116.133 355.667C111.004 357.081 105.315 357.969 99.528 358.692C105.513 364.447 113.799 368.327 121.427 371.549C139.776 379.244 157.368 389.043 180.352 391.936C195.577 401.143 219.35 402.853 238.521 407.785C239.31 410.942 236.942 412.915 238.521 414.592C241.217 414.526 242.894 413.408 245.327 413.079C246.281 406.108 240.231 405.549 240.79 400.979C197.714 390.917 152.238 383.255 120.671 361.685V361.718ZM76.8393 362.474C77.9902 369.313 80.4234 370.662 88.1836 373.818C95.2204 376.679 98.7059 379.605 104.033 382.137C117.876 388.681 133.758 393.416 147.108 396.507C149.081 397.066 149.673 398.973 151.646 399.532C170.718 402.524 181.799 406.174 200.739 408.608C200.936 411.205 204.784 410.12 205.277 412.389C212.511 411.797 226.552 423.24 234.739 413.902C184.035 401.9 135.731 387.464 95.7136 364.809C94.2668 363.362 96.5028 361.751 96.4699 359.515C87.789 359.975 83.7445 360.402 76.8064 362.54L76.8393 362.474ZM36.7889 367.768C55.2357 386.018 83.9089 393.317 107.814 403.281C138.888 406.503 159.209 422.122 194.689 421.399C196.728 426.495 199.029 423.306 203.764 426.693C208.401 425.936 209.058 426.956 212.84 428.205C218.561 423.668 232.865 432.579 240.033 425.18C222.606 422.813 204.685 418.242 186.403 412.323C165.424 405.549 141.847 404.99 122.184 395.718C102.52 386.445 83.4815 380.888 69.3093 367.012C67.8296 365.598 69.0791 364.25 69.3093 362.474C57.6361 364.118 45.9301 367.702 36.8217 367.768H36.7889ZM43.5955 381.381C38.696 376.449 31.6592 373.687 20.9397 374.575C25.6089 379.244 35.2763 382.894 43.5955 381.381ZM51.9146 387.431C50.1719 387.201 46.5549 388.418 42.8392 388.188C34.9146 387.727 26.1679 382.565 23.2085 387.431C35.2434 392.002 51.8489 396.047 67.7967 394.238C63.2919 393.449 58.3595 388.254 51.9475 387.431H51.9146ZM29.2589 401.045C49.4156 409.923 86.9341 413.507 109.327 408.608C96.733 405.813 84.5337 402.689 73.8141 398.02C71.3151 398.743 74.0772 401.702 70.0327 401.801C54.7754 401.965 42.2144 399.401 29.9823 396.507C30.5413 398.809 29.1931 399.269 29.226 401.045H29.2589ZM66.2841 421.432C83.9418 423.964 111.431 421.004 125.965 416.138C124.321 413.474 120.375 413.178 116.89 412.356C91.4718 422.977 56.1564 415.151 29.2589 407.818C31.6921 422.188 51.5201 419.294 66.2841 421.432ZM134.284 417.65C133.166 417.88 133.594 419.656 132.772 419.919C101.336 429.422 60.2996 434.058 30.0151 420.675C25.9706 423.964 26.4639 431.691 31.5277 433.532C34.2241 432.447 33.2705 427.745 36.8217 427.482C38.4987 428.567 37.874 431.987 39.0906 433.532C59.2145 432.118 78.6478 432.151 98.0154 430.507C103.046 430.08 107.453 427.548 112.385 426.726C124.288 424.753 137.737 427.416 147.141 419.919C142.932 420.478 138.395 416.762 134.284 417.65ZM160.722 422.944C148.818 426.232 137.573 432.283 124.453 433.532C98.2784 435.998 68.7832 437.116 42.1158 441.095C45.9301 441.292 47.2125 444.055 49.6787 445.633C71.8741 449.217 96.5686 445.436 119.948 441.851C142.538 438.399 165.851 435.538 183.41 427.482C177.196 428.172 166.64 421.333 160.754 422.944H160.722ZM193.965 431.263C193.933 430.803 193.867 430.376 193.209 430.507C193.209 431.493 191.894 431.198 191.697 432.02C190.052 433.598 187.685 434.683 185.646 435.045C162.53 439.024 142.077 448.329 117.646 450.138C94.4312 451.848 60.464 457.142 41.3266 449.381C44.7135 456.056 53.9204 457.043 60.2338 458.457C67.994 460.2 76.1816 460.792 84.4022 460.726C117.284 460.43 151.712 453.13 180.352 446.356C186.994 439.648 199.292 438.596 207.546 433.499C202.022 433.73 198.7 431.757 193.933 431.23L193.965 431.263ZM214.385 434.289C185.515 456.024 143.163 464.31 96.5357 468.289C108.143 470.426 120.309 468.848 132.805 468.289C142.867 467.861 153.652 469.637 163.023 468.289C172 467.006 181.207 462.271 187.948 459.969C206.691 453.59 227.111 454.149 230.991 436.557C226.223 434.223 222.408 434.19 214.385 434.289ZM216.654 472.07C209.913 478.515 196.629 484.96 183.41 487.163C144.675 493.641 91.702 500.053 57.2415 489.432C57.9978 500.677 58.7541 510.97 60.2667 524.188C60.3982 525.24 62.3712 527.016 62.5356 528.726C62.8644 531.817 60.0694 530.83 61.023 533.264C62.8644 537.867 73.5182 547.14 78.3848 549.146C83.7117 551.316 92.82 551.119 101.797 553.684C109.327 555.821 117.416 558.682 124.453 558.978C144.544 559.8 162.004 555.36 177.327 551.415C183.739 549.771 190.447 549.507 195.478 547.633C207.743 543.063 215.109 531.587 221.915 524.977C218.759 511.956 223.691 488.906 218.89 472.103H216.621L216.654 472.07Z" fill="#C79BCB"/>
</g>
</svg>
